<svg width="253" height="86" viewBox="0 0 253 86" fill="none" xmlns="http://www.w3.org/2000/svg">
<path d="M70.1919 37.544L76.7718 33.1004L70.7572 24.3145L64.1774 28.758C61.7308 30.4048 61.1006 33.7076 62.7595 36.1364C63.5935 37.3508 64.8354 38.1145 66.1884 38.3721C67.5229 38.6205 68.9686 38.372 70.1919 37.544Z" fill="#00D1BB"/>
<path d="M83.5378 28.5373L76.9579 32.9809L70.9434 24.1949L77.5232 19.7513C79.9698 18.1045 83.2968 18.7301 84.9557 21.1589C85.7897 22.3733 86.04 23.8085 85.7897 25.1425C85.5302 26.4765 84.761 27.7093 83.5378 28.5373Z" fill="url(#paint0_linear_14006_11363)"/>
<path d="M63.2871 56.6249L69.5704 61.4641L76.1317 53.0645L69.8484 48.2253C67.513 46.4313 64.1489 46.8453 62.3418 49.1637C61.4336 50.3229 61.0907 51.7397 61.2575 53.0829C61.4336 54.4445 62.1286 55.7325 63.2871 56.6249Z" fill="#00D1BB"/>
<path d="M76.0489 66.4505L69.7656 61.6113L76.3269 53.2117L82.6102 58.0509C84.9456 59.8449 85.3719 63.1845 83.5555 65.5029C82.6473 66.6621 81.3591 67.3429 79.9968 67.5177C78.6345 67.6925 77.2166 67.3429 76.0489 66.4505Z" fill="url(#paint1_linear_14006_11363)"/>
<path d="M42.8804 56.0083L40.1836 63.4419L50.2573 67.0391L52.9541 59.6055C53.9549 56.8455 52.5092 53.8003 49.729 52.8067C48.3389 52.3099 46.8747 52.4203 45.6328 52.9999C44.391 53.5887 43.3808 54.6375 42.8804 56.0083Z" fill="#00D1BB"/>
<path d="M37.413 71.0872L40.1099 63.6536L50.1835 67.2508L47.4867 74.6844C46.4858 77.4444 43.4183 78.8796 40.6381 77.886C39.248 77.3892 38.1915 76.3772 37.6077 75.1444C37.0238 73.9208 36.9126 72.4672 37.413 71.0872Z" fill="url(#paint2_linear_14006_11363)"/>
<path d="M37.164 36.5504L29.2125 36.302L28.8789 46.9188L36.8303 47.1672C39.7866 47.2592 42.2518 44.9592 42.3444 42.0244C42.3908 40.5616 41.8347 39.2092 40.8987 38.2248C39.9534 37.2312 38.6375 36.5964 37.164 36.5504Z" fill="#00D1BB"/>
<path d="M21.0285 36.0444L28.9799 36.2928L28.6463 46.9096L20.6949 46.6612C17.7386 46.5692 15.4217 44.122 15.5144 41.1872C15.5607 39.7244 16.2002 38.4088 17.2011 37.4796C18.1927 36.5504 19.555 35.9984 21.0285 36.0444Z" fill="url(#paint3_linear_14006_11363)"/>
<path d="M54.0388 25.1333L51.8147 17.5525L41.5371 20.5149L43.7613 28.0957C44.5861 30.9109 47.5516 32.5301 50.3967 31.7113C51.8147 31.2973 52.936 30.3589 53.594 29.1721C54.252 27.9853 54.4559 26.5409 54.0388 25.1333Z" fill="#00D1BB"/>
<path d="M49.5346 9.75082L51.7588 17.3316L41.4812 20.294L39.2571 12.7132C38.4323 9.89802 40.0633 6.94482 42.8992 6.12602C44.3171 5.71202 45.772 5.91441 46.9675 6.57681C48.1723 7.23001 49.1268 8.34322 49.5346 9.75082Z" fill="url(#paint4_linear_14006_11363)"/>
<path d="M113.369 39.5404L102.646 19.742H112.118L117.752 31.1224L123.341 19.742H132.812L122.089 39.5404V50.93H113.36V39.5404H113.369ZM164.979 35.336C164.979 37.6176 164.571 39.7336 163.756 41.6932C162.94 43.6528 161.81 45.3548 160.364 46.79C158.918 48.2252 157.222 49.3568 155.276 50.1848C153.33 51.0128 151.245 51.4176 149.021 51.4176C146.759 51.4176 144.665 51.0036 142.737 50.1848C140.81 49.3568 139.123 48.2344 137.677 46.79C136.232 45.3548 135.101 43.6528 134.285 41.6932C133.47 39.7336 133.062 37.6084 133.062 35.336C133.062 33.0636 133.47 30.9384 134.285 28.9788C135.101 27.0192 136.232 25.3172 137.677 23.882C139.123 22.4468 140.81 21.3152 142.737 20.4872C144.665 19.6592 146.759 19.2544 149.021 19.2544C151.254 19.2544 153.339 19.6684 155.276 20.4872C157.222 21.3152 158.918 22.4468 160.364 23.882C161.81 25.3172 162.94 27.0192 163.756 28.9788C164.571 30.9384 164.979 33.0544 164.979 35.336ZM141.792 35.336C141.792 36.4584 141.987 37.4888 142.367 38.4272C142.747 39.3656 143.265 40.1752 143.914 40.856C144.563 41.5368 145.323 42.0612 146.213 42.4384C147.093 42.8156 148.029 43.0088 149.03 43.0088C150.031 43.0088 150.967 42.8156 151.847 42.4384C152.728 42.0612 153.487 41.5368 154.136 40.856C154.785 40.1844 155.295 39.3748 155.684 38.4272C156.064 37.4888 156.258 36.4584 156.258 35.336C156.258 34.2136 156.064 33.1832 155.684 32.2448C155.304 31.3064 154.785 30.4968 154.136 29.816C153.487 29.1444 152.718 28.6108 151.847 28.2336C150.967 27.8564 150.021 27.6632 149.03 27.6632C148.038 27.6632 147.093 27.8564 146.213 28.2336C145.332 28.6108 144.563 29.1444 143.914 29.816C143.265 30.4968 142.747 31.3064 142.367 32.2448C141.977 33.1832 141.792 34.2136 141.792 35.336ZM169.214 19.742H180.687C182.976 19.742 185.108 20.1376 187.072 20.9288C189.037 21.72 190.724 22.8056 192.133 24.1948C193.55 25.584 194.653 27.2308 195.45 29.1444C196.247 31.058 196.646 33.1188 196.646 35.3268C196.646 37.5716 196.247 39.6416 195.45 41.5368C194.653 43.432 193.55 45.0788 192.133 46.4588C190.724 47.848 189.028 48.9336 187.072 49.7248C185.108 50.516 182.986 50.9116 180.687 50.9116H169.214V19.742ZM180.687 43.0088C181.688 43.0088 182.624 42.8156 183.505 42.4384C184.385 42.0612 185.145 41.5368 185.794 40.856C186.442 40.1844 186.952 39.3748 187.341 38.4272C187.721 37.4888 187.916 36.4584 187.916 35.336C187.916 34.2136 187.721 33.1832 187.341 32.2448C186.961 31.3064 186.442 30.4968 185.794 29.816C185.145 29.1444 184.376 28.6108 183.505 28.2336C182.624 27.8564 181.679 27.6632 180.687 27.6632H177.944V43.0088H180.687ZM207.859 45.2352L206.117 50.93H196.896L207.618 19.742H217.59L228.312 50.93H219.091L217.349 45.2352H207.859ZM212.595 29.3928L209.852 38.3076H215.338L212.595 29.3928Z" fill="url(#paint5_linear_14006_11363)"/>
<path d="M104.48 58.4372H110.81C114.544 58.4372 116.954 60.3416 116.954 63.5892V63.6352C116.954 67.0944 114.276 68.916 110.596 68.916H108.567V73.1112H104.471V58.4372H104.48ZM110.513 65.7328C111.968 65.7328 112.858 64.9784 112.858 63.8284V63.7824C112.858 62.522 111.968 61.8504 110.495 61.8504H108.576V65.7236H110.513V65.7328ZM118.687 58.4372H122.783V63.9296H128.038V58.4372H132.134V73.102H128.038V67.5268H122.783V73.102H118.687V58.4372ZM139.854 58.336H143.802L150.094 73.1112H145.701L144.626 70.4892H138.927L137.87 73.1112H133.561L139.854 58.336ZM143.449 67.3244L141.8 63.1568L140.132 67.3244H143.449ZM151.531 58.4372H158.518C160.779 58.4372 162.336 59.026 163.328 60.0288C164.19 60.866 164.635 61.9976 164.635 63.442V63.488C164.635 65.7328 163.43 67.214 161.595 67.996L165.117 73.1112H160.39L157.415 68.6676H157.369H155.617V73.1112H151.521V58.4372H151.531ZM158.333 65.4844C159.723 65.4844 160.529 64.8128 160.529 63.7456V63.6996C160.529 62.5496 159.686 61.9608 158.314 61.9608H155.636V65.4844H158.333ZM166.711 58.4372H171.038L174.56 64.1136L178.082 58.4372H182.41V73.102H178.332V64.6748L174.551 70.4156H174.467L170.714 64.7116V73.0928H166.701V58.4372H166.711ZM190.148 58.336H194.096L200.388 73.1112H195.996L194.921 70.4892H189.221L188.165 73.1112H183.855L190.148 58.336ZM193.734 67.3244L192.085 63.1568L190.417 67.3244H193.734ZM200.36 65.8156V65.7696C200.36 61.4916 203.678 58.1428 208.154 58.1428C211.176 58.1428 213.112 59.4032 214.419 61.2064L211.333 63.5708C210.49 62.522 209.517 61.8504 208.108 61.8504C206.041 61.8504 204.586 63.5892 204.586 65.7236V65.7696C204.586 67.9684 206.041 69.6888 208.108 69.6888C209.646 69.6888 210.555 68.9804 211.444 67.904L214.53 70.0844C213.14 71.9888 211.259 73.3964 207.988 73.3964C203.762 73.4056 200.36 70.1948 200.36 65.8156ZM220.119 67.6188L214.503 58.4372H219.164L222.204 63.7824L225.262 58.4372H229.84L224.224 67.5544V73.1112H220.109V67.6188H220.119Z" fill="url(#paint6_linear_14006_11363)"/>
<defs>
<linearGradient id="paint0_linear_14006_11363" x1="75.7969" y1="32.5907" x2="80.3462" y2="18.4854" gradientUnits="userSpaceOnUse">
<stop stop-color="#00D1BB"/>
<stop offset="1" stop-color="#293A8E"/>
</linearGradient>
<linearGradient id="paint1_linear_14006_11363" x1="69.7597" y1="60.3864" x2="84.6783" y2="60.3864" gradientUnits="userSpaceOnUse">
<stop stop-color="#00D1BB"/>
<stop offset="1" stop-color="#293A8E"/>
</linearGradient>
<linearGradient id="paint2_linear_14006_11363" x1="41.2662" y1="63.2829" x2="45.8155" y2="77.3882" gradientUnits="userSpaceOnUse">
<stop stop-color="#00D1BB"/>
<stop offset="1" stop-color="#293A8E"/>
</linearGradient>
<linearGradient id="paint3_linear_14006_11363" x1="29.7008" y1="37.2861" x2="17.6927" y2="46.0748" gradientUnits="userSpaceOnUse">
<stop stop-color="#00D1BB"/>
<stop offset="1" stop-color="#293A8E"/>
</linearGradient>
<linearGradient id="paint4_linear_14006_11363" x1="51.0369" y1="18.3208" x2="39.0288" y2="9.53204" gradientUnits="userSpaceOnUse">
<stop stop-color="#00D1BB"/>
<stop offset="1" stop-color="#293A8E"/>
</linearGradient>
<linearGradient id="paint5_linear_14006_11363" x1="57.1877" y1="35.3349" x2="281.374" y2="35.3349" gradientUnits="userSpaceOnUse">
<stop stop-color="#00D1BB"/>
<stop offset="1" stop-color="#293A8E"/>
</linearGradient>
<linearGradient id="paint6_linear_14006_11363" x1="166.895" y1="26.7359" x2="167.742" y2="151.199" gradientUnits="userSpaceOnUse">
<stop offset="0.1378" stop-color="#211E1F"/>
<stop offset="0.5604" stop-color="#919395"/>
</linearGradient>
</defs>
</svg>
