<svg width="71" height="74" viewBox="0 0 71 74" fill="none" xmlns="http://www.w3.org/2000/svg">
<path d="M55.1939 32.544L61.7737 28.1004L55.7592 19.3145L49.1793 23.758C46.7327 25.4048 46.1026 28.7076 47.7614 31.1364C48.5955 32.3508 49.8373 33.1145 51.1904 33.3721C52.5249 33.6205 53.9706 33.372 55.1939 32.544Z" fill="#00D1BB"/>
<path d="M68.5397 23.5373L61.9598 27.9809L55.9453 19.1949L62.5252 14.7513C64.9718 13.1045 68.2988 13.7301 69.9576 16.1589C70.7917 17.3733 71.0419 18.8085 70.7917 20.1425C70.5322 21.4765 69.763 22.7093 68.5397 23.5373Z" fill="url(#paint0_linear_14052_11405)"/>
<path d="M48.289 51.6249L54.5723 56.4641L61.1336 48.0645L54.8503 43.2253C52.515 41.4313 49.1509 41.8453 47.3437 44.1637C46.4355 45.3229 46.0926 46.7397 46.2595 48.0829C46.4355 49.4445 47.1306 50.7325 48.289 51.6249Z" fill="#00D1BB"/>
<path d="M61.0489 61.4505L54.7656 56.6113L61.3269 48.2117L67.6102 53.0509C69.9456 54.8449 70.3719 58.1845 68.5555 60.5029C67.6473 61.6621 66.3591 62.3429 64.9968 62.5177C63.6345 62.6925 62.2166 62.3429 61.0489 61.4505Z" fill="url(#paint1_linear_14052_11405)"/>
<path d="M27.8843 51.0083L25.1875 58.4419L35.2612 62.0391L37.958 54.6055C38.9589 51.8455 37.5131 48.8003 34.7329 47.8067C33.3428 47.3099 31.8786 47.4203 30.6367 47.9999C29.3949 48.5887 28.3847 49.6375 27.8843 51.0083Z" fill="#00D1BB"/>
<path d="M22.415 66.0872L25.1118 58.6536L35.1855 62.2508L32.4887 69.6844C31.4878 72.4444 28.4203 73.8796 25.64 72.886C24.2499 72.3892 23.1935 71.3772 22.6096 70.1444C22.0258 68.9208 21.9146 67.4672 22.415 66.0872Z" fill="url(#paint2_linear_14052_11405)"/>
<path d="M22.164 31.5504L14.2125 31.302L13.8789 41.9188L21.8303 42.1672C24.7866 42.2592 27.2518 39.9592 27.3444 37.0244C27.3908 35.5616 26.8347 34.2092 25.8987 33.2248C24.9534 32.2312 23.6375 31.5964 22.164 31.5504Z" fill="#00D1BB"/>
<path d="M6.02851 31.0444L13.9799 31.2928L13.6463 41.9096L5.69488 41.6612C2.73858 41.5692 0.421731 39.122 0.514405 36.1872C0.560742 34.7244 1.20019 33.4088 2.20107 32.4796C3.19268 31.5504 4.55499 30.9984 6.02851 31.0444Z" fill="url(#paint3_linear_14052_11405)"/>
<path d="M39.0408 20.1333L36.8166 12.5525L26.5391 15.5149L28.7632 23.0957C29.588 25.9109 32.5536 27.5301 35.3987 26.7113C36.8166 26.2973 37.938 25.3589 38.596 24.1721C39.2539 22.9853 39.4578 21.5409 39.0408 20.1333Z" fill="#00D1BB"/>
<path d="M34.5346 4.75082L36.7588 12.3316L26.4812 15.294L24.2571 7.71322C23.4323 4.89802 25.0633 1.94482 27.8992 1.12602C29.3171 0.712018 30.772 0.914409 31.9675 1.57681C33.1723 2.23001 34.1268 3.34322 34.5346 4.75082Z" fill="url(#paint4_linear_14052_11405)"/>
<defs>
<linearGradient id="paint0_linear_14052_11405" x1="60.7988" y1="27.5907" x2="65.3482" y2="13.4854" gradientUnits="userSpaceOnUse">
<stop stop-color="#00D1BB"/>
<stop offset="1" stop-color="#293A8E"/>
</linearGradient>
<linearGradient id="paint1_linear_14052_11405" x1="54.7597" y1="55.3864" x2="69.6783" y2="55.3864" gradientUnits="userSpaceOnUse">
<stop stop-color="#00D1BB"/>
<stop offset="1" stop-color="#293A8E"/>
</linearGradient>
<linearGradient id="paint2_linear_14052_11405" x1="26.2681" y1="58.2829" x2="30.8175" y2="72.3882" gradientUnits="userSpaceOnUse">
<stop stop-color="#00D1BB"/>
<stop offset="1" stop-color="#293A8E"/>
</linearGradient>
<linearGradient id="paint3_linear_14052_11405" x1="14.7008" y1="32.2861" x2="2.69266" y2="41.0748" gradientUnits="userSpaceOnUse">
<stop stop-color="#00D1BB"/>
<stop offset="1" stop-color="#293A8E"/>
</linearGradient>
<linearGradient id="paint4_linear_14052_11405" x1="36.0369" y1="13.3208" x2="24.0288" y2="4.53204" gradientUnits="userSpaceOnUse">
<stop stop-color="#00D1BB"/>
<stop offset="1" stop-color="#293A8E"/>
</linearGradient>
</defs>
</svg>
